<mxfile host="app.diagrams.net" modified="2024-03-28T14:41:57.665Z" agent="Mozilla/5.0 (Windows NT 10.0; Win64; x64) AppleWebKit/537.36 (KHTML, like Gecko) Chrome/123.0.0.0 Safari/537.36" etag="gO4GkpJ3rvG41lszkJnH" version="24.2.0" type="device">
  <diagram name="Strona-1" id="okIQBlS8VrDUnU-wp4ho">
    <mxGraphModel dx="1140" dy="565" grid="1" gridSize="10" guides="1" tooltips="1" connect="1" arrows="1" fold="1" page="1" pageScale="1" pageWidth="3300" pageHeight="4681" math="0" shadow="0">
      <root>
        <mxCell id="0" />
        <mxCell id="1" parent="0" />
        <mxCell id="ZAmYnKzkROyxz_uaIST8-1" value="Address" style="swimlane;whiteSpace=wrap;html=1;" parent="1" vertex="1" collapsed="1">
          <mxGeometry x="410" y="430" width="80" height="30" as="geometry">
            <mxRectangle x="150" y="180" width="200" height="200" as="alternateBounds" />
          </mxGeometry>
        </mxCell>
        <mxCell id="ZAmYnKzkROyxz_uaIST8-14" style="edgeStyle=orthogonalEdgeStyle;rounded=0;orthogonalLoop=1;jettySize=auto;html=1;exitX=0.5;exitY=0;exitDx=0;exitDy=0;entryX=0.25;entryY=1;entryDx=0;entryDy=0;" parent="1" source="ZAmYnKzkROyxz_uaIST8-2" target="ZAmYnKzkROyxz_uaIST8-8" edge="1">
          <mxGeometry relative="1" as="geometry" />
        </mxCell>
        <mxCell id="ZAmYnKzkROyxz_uaIST8-2" value="City" style="swimlane;whiteSpace=wrap;html=1;" parent="1" vertex="1" collapsed="1">
          <mxGeometry x="660" y="430" width="60" height="30" as="geometry">
            <mxRectangle x="440" y="180" width="200" height="200" as="alternateBounds" />
          </mxGeometry>
        </mxCell>
        <mxCell id="ZAmYnKzkROyxz_uaIST8-3" value="" style="endArrow=classic;html=1;rounded=0;exitX=1;exitY=0.5;exitDx=0;exitDy=0;entryX=0;entryY=0.5;entryDx=0;entryDy=0;" parent="1" source="ZAmYnKzkROyxz_uaIST8-1" target="ZAmYnKzkROyxz_uaIST8-2" edge="1">
          <mxGeometry width="50" height="50" relative="1" as="geometry">
            <mxPoint x="570" y="590" as="sourcePoint" />
            <mxPoint x="620" y="540" as="targetPoint" />
          </mxGeometry>
        </mxCell>
        <mxCell id="ZAmYnKzkROyxz_uaIST8-23" style="edgeStyle=orthogonalEdgeStyle;rounded=0;orthogonalLoop=1;jettySize=auto;html=1;exitX=0;exitY=1;exitDx=0;exitDy=0;entryX=1;entryY=0;entryDx=0;entryDy=0;" parent="1" source="ZAmYnKzkROyxz_uaIST8-4" target="ZAmYnKzkROyxz_uaIST8-17" edge="1">
          <mxGeometry relative="1" as="geometry" />
        </mxCell>
        <mxCell id="ZAmYnKzkROyxz_uaIST8-4" value="Client" style="swimlane;whiteSpace=wrap;html=1;startSize=23;" parent="1" vertex="1" collapsed="1">
          <mxGeometry x="330" y="300" width="80" height="30" as="geometry">
            <mxRectangle x="150" y="180" width="200" height="200" as="alternateBounds" />
          </mxGeometry>
        </mxCell>
        <mxCell id="ZAmYnKzkROyxz_uaIST8-5" value="" style="endArrow=classic;html=1;rounded=0;entryX=0;entryY=0;entryDx=0;entryDy=0;" parent="1" target="ZAmYnKzkROyxz_uaIST8-1" edge="1">
          <mxGeometry width="50" height="50" relative="1" as="geometry">
            <mxPoint x="390" y="330" as="sourcePoint" />
            <mxPoint x="430" y="400" as="targetPoint" />
          </mxGeometry>
        </mxCell>
        <mxCell id="ZAmYnKzkROyxz_uaIST8-12" style="edgeStyle=orthogonalEdgeStyle;rounded=0;orthogonalLoop=1;jettySize=auto;html=1;exitX=1;exitY=0;exitDx=0;exitDy=0;entryX=0;entryY=0.5;entryDx=0;entryDy=0;" parent="1" source="ZAmYnKzkROyxz_uaIST8-8" target="ZAmYnKzkROyxz_uaIST8-9" edge="1">
          <mxGeometry relative="1" as="geometry" />
        </mxCell>
        <mxCell id="ZAmYnKzkROyxz_uaIST8-13" style="edgeStyle=orthogonalEdgeStyle;rounded=0;orthogonalLoop=1;jettySize=auto;html=1;exitX=1;exitY=1;exitDx=0;exitDy=0;entryX=0;entryY=0.75;entryDx=0;entryDy=0;" parent="1" source="ZAmYnKzkROyxz_uaIST8-8" target="ZAmYnKzkROyxz_uaIST8-10" edge="1">
          <mxGeometry relative="1" as="geometry" />
        </mxCell>
        <mxCell id="ZAmYnKzkROyxz_uaIST8-8" value="Country" style="swimlane;whiteSpace=wrap;html=1;" parent="1" vertex="1" collapsed="1">
          <mxGeometry x="690" y="340" width="60" height="30" as="geometry">
            <mxRectangle x="440" y="180" width="200" height="200" as="alternateBounds" />
          </mxGeometry>
        </mxCell>
        <mxCell id="ZAmYnKzkROyxz_uaIST8-9" value="Currency" style="swimlane;whiteSpace=wrap;html=1;" parent="1" vertex="1" collapsed="1">
          <mxGeometry x="820" y="300" width="60" height="30" as="geometry">
            <mxRectangle x="440" y="180" width="200" height="200" as="alternateBounds" />
          </mxGeometry>
        </mxCell>
        <mxCell id="ZAmYnKzkROyxz_uaIST8-10" value="Language" style="swimlane;whiteSpace=wrap;html=1;" parent="1" vertex="1" collapsed="1">
          <mxGeometry x="820" y="370" width="60" height="30" as="geometry">
            <mxRectangle x="440" y="180" width="200" height="200" as="alternateBounds" />
          </mxGeometry>
        </mxCell>
        <mxCell id="ZAmYnKzkROyxz_uaIST8-24" style="edgeStyle=orthogonalEdgeStyle;rounded=0;orthogonalLoop=1;jettySize=auto;html=1;exitX=0;exitY=0;exitDx=0;exitDy=0;entryX=1;entryY=1;entryDx=0;entryDy=0;" parent="1" source="ZAmYnKzkROyxz_uaIST8-15" target="ZAmYnKzkROyxz_uaIST8-17" edge="1">
          <mxGeometry relative="1" as="geometry" />
        </mxCell>
        <mxCell id="ZAmYnKzkROyxz_uaIST8-15" value="Employee" style="swimlane;whiteSpace=wrap;html=1;" parent="1" vertex="1" collapsed="1">
          <mxGeometry x="330" y="550" width="90" height="30" as="geometry">
            <mxRectangle x="240" y="150" width="200" height="200" as="alternateBounds" />
          </mxGeometry>
        </mxCell>
        <mxCell id="ZAmYnKzkROyxz_uaIST8-16" value="" style="endArrow=classic;html=1;rounded=0;entryX=0;entryY=1;entryDx=0;entryDy=0;" parent="1" target="ZAmYnKzkROyxz_uaIST8-1" edge="1">
          <mxGeometry width="50" height="50" relative="1" as="geometry">
            <mxPoint x="420" y="550" as="sourcePoint" />
            <mxPoint x="470" y="500" as="targetPoint" />
          </mxGeometry>
        </mxCell>
        <mxCell id="ZAmYnKzkROyxz_uaIST8-17" value="AccountInfromation&lt;div&gt;&lt;br&gt;&lt;/div&gt;" style="swimlane;whiteSpace=wrap;html=1;" parent="1" vertex="1" collapsed="1">
          <mxGeometry x="190" y="430" width="140" height="40" as="geometry">
            <mxRectangle x="40" y="120" width="200" height="200" as="alternateBounds" />
          </mxGeometry>
        </mxCell>
        <mxCell id="_3OZw0aWYD415ZmmjR2A-2" style="edgeStyle=orthogonalEdgeStyle;rounded=0;orthogonalLoop=1;jettySize=auto;html=1;exitX=1;exitY=0.5;exitDx=0;exitDy=0;entryX=0;entryY=0.75;entryDx=0;entryDy=0;" parent="1" source="ZAmYnKzkROyxz_uaIST8-21" target="_3OZw0aWYD415ZmmjR2A-1" edge="1">
          <mxGeometry relative="1" as="geometry" />
        </mxCell>
        <mxCell id="_3OZw0aWYD415ZmmjR2A-12" style="edgeStyle=orthogonalEdgeStyle;rounded=0;orthogonalLoop=1;jettySize=auto;html=1;exitX=0.75;exitY=0;exitDx=0;exitDy=0;entryX=0.5;entryY=1;entryDx=0;entryDy=0;" parent="1" source="ZAmYnKzkROyxz_uaIST8-21" target="_3OZw0aWYD415ZmmjR2A-6" edge="1">
          <mxGeometry relative="1" as="geometry">
            <Array as="points">
              <mxPoint x="475" y="215" />
              <mxPoint x="570" y="215" />
            </Array>
          </mxGeometry>
        </mxCell>
        <mxCell id="_3OZw0aWYD415ZmmjR2A-14" style="edgeStyle=orthogonalEdgeStyle;rounded=0;orthogonalLoop=1;jettySize=auto;html=1;exitX=0;exitY=1;exitDx=0;exitDy=0;entryX=1;entryY=0;entryDx=0;entryDy=0;" parent="1" source="ZAmYnKzkROyxz_uaIST8-21" target="ZAmYnKzkROyxz_uaIST8-4" edge="1">
          <mxGeometry relative="1" as="geometry" />
        </mxCell>
        <mxCell id="ZAmYnKzkROyxz_uaIST8-21" value="Reservation" style="swimlane;whiteSpace=wrap;html=1;" parent="1" vertex="1" collapsed="1">
          <mxGeometry x="400" y="130" width="100" height="30" as="geometry">
            <mxRectangle x="350" y="190" width="200" height="200" as="alternateBounds" />
          </mxGeometry>
        </mxCell>
        <mxCell id="_3OZw0aWYD415ZmmjR2A-4" style="edgeStyle=orthogonalEdgeStyle;rounded=0;orthogonalLoop=1;jettySize=auto;html=1;exitX=0.5;exitY=1;exitDx=0;exitDy=0;entryX=0.25;entryY=0;entryDx=0;entryDy=0;" parent="1" source="_3OZw0aWYD415ZmmjR2A-1" target="ZAmYnKzkROyxz_uaIST8-2" edge="1">
          <mxGeometry relative="1" as="geometry" />
        </mxCell>
        <mxCell id="_3OZw0aWYD415ZmmjR2A-1" value="Flight" style="swimlane;whiteSpace=wrap;html=1;" parent="1" vertex="1" collapsed="1">
          <mxGeometry x="650" y="120" width="100" height="30" as="geometry">
            <mxRectangle x="350" y="190" width="200" height="200" as="alternateBounds" />
          </mxGeometry>
        </mxCell>
        <mxCell id="_3OZw0aWYD415ZmmjR2A-6" value="Hotel" style="swimlane;whiteSpace=wrap;html=1;startSize=23;" parent="1" vertex="1" collapsed="1">
          <mxGeometry x="520" y="280" width="100" height="30" as="geometry">
            <mxRectangle x="350" y="190" width="200" height="200" as="alternateBounds" />
          </mxGeometry>
        </mxCell>
        <mxCell id="lYiHuXV4kpMyug3x7Chv-16" style="edgeStyle=none;curved=1;rounded=0;orthogonalLoop=1;jettySize=auto;html=1;exitX=0;exitY=1;exitDx=0;exitDy=0;entryX=1;entryY=0;entryDx=0;entryDy=0;fontSize=12;startSize=8;endSize=8;" parent="1" source="_3OZw0aWYD415ZmmjR2A-8" target="lYiHuXV4kpMyug3x7Chv-14" edge="1">
          <mxGeometry relative="1" as="geometry" />
        </mxCell>
        <mxCell id="_3OZw0aWYD415ZmmjR2A-8" value="Service" style="swimlane;whiteSpace=wrap;html=1;startSize=23;" parent="1" vertex="1" collapsed="1">
          <mxGeometry x="200" y="70" width="100" height="30" as="geometry">
            <mxRectangle x="350" y="190" width="200" height="200" as="alternateBounds" />
          </mxGeometry>
        </mxCell>
        <mxCell id="_3OZw0aWYD415ZmmjR2A-13" value="" style="endArrow=classic;startArrow=classic;html=1;rounded=0;entryX=0;entryY=0;entryDx=0;entryDy=0;" parent="1" target="ZAmYnKzkROyxz_uaIST8-21" edge="1">
          <mxGeometry width="50" height="50" relative="1" as="geometry">
            <mxPoint x="300" y="100" as="sourcePoint" />
            <mxPoint x="350" y="50" as="targetPoint" />
          </mxGeometry>
        </mxCell>
        <mxCell id="_3OZw0aWYD415ZmmjR2A-16" value="" style="endArrow=none;html=1;rounded=0;entryX=0.25;entryY=1;entryDx=0;entryDy=0;exitX=1;exitY=0;exitDx=0;exitDy=0;" parent="1" source="ZAmYnKzkROyxz_uaIST8-1" target="_3OZw0aWYD415ZmmjR2A-6" edge="1">
          <mxGeometry width="50" height="50" relative="1" as="geometry">
            <mxPoint x="520" y="320" as="sourcePoint" />
            <mxPoint x="570" y="270" as="targetPoint" />
          </mxGeometry>
        </mxCell>
        <mxCell id="lYiHuXV4kpMyug3x7Chv-7" value="Logic Model" style="swimlane;whiteSpace=wrap;html=1;" parent="1" vertex="1">
          <mxGeometry x="40" y="40" width="920" height="590" as="geometry" />
        </mxCell>
        <mxCell id="lYiHuXV4kpMyug3x7Chv-14" value="ServiceType" style="swimlane;whiteSpace=wrap;html=1;startSize=23;" parent="lYiHuXV4kpMyug3x7Chv-7" vertex="1">
          <mxGeometry x="30" y="80" width="100" height="40" as="geometry" />
        </mxCell>
        <mxCell id="lYiHuXV4kpMyug3x7Chv-8" value="Site Model" style="swimlane;whiteSpace=wrap;html=1;" parent="1" vertex="1">
          <mxGeometry x="40" y="630" width="920" height="590" as="geometry" />
        </mxCell>
        <mxCell id="lYiHuXV4kpMyug3x7Chv-9" value="HotelPhoto" style="swimlane;whiteSpace=wrap;html=1;" parent="lYiHuXV4kpMyug3x7Chv-8" vertex="1">
          <mxGeometry x="560" y="80" width="90" height="40" as="geometry" />
        </mxCell>
        <mxCell id="lYiHuXV4kpMyug3x7Chv-10" value="CountryPhoto" style="swimlane;whiteSpace=wrap;html=1;" parent="lYiHuXV4kpMyug3x7Chv-8" vertex="1">
          <mxGeometry x="670" y="80" width="90" height="40" as="geometry" />
        </mxCell>
        <mxCell id="wqxDISOV_jV8ctvXTGDp-17" style="edgeStyle=orthogonalEdgeStyle;rounded=0;orthogonalLoop=1;jettySize=auto;html=1;exitX=1;exitY=0.5;exitDx=0;exitDy=0;entryX=0;entryY=0;entryDx=0;entryDy=0;" edge="1" parent="lYiHuXV4kpMyug3x7Chv-8" source="wqxDISOV_jV8ctvXTGDp-1" target="wqxDISOV_jV8ctvXTGDp-15">
          <mxGeometry relative="1" as="geometry" />
        </mxCell>
        <mxCell id="wqxDISOV_jV8ctvXTGDp-19" style="edgeStyle=orthogonalEdgeStyle;rounded=0;orthogonalLoop=1;jettySize=auto;html=1;exitX=0.5;exitY=0;exitDx=0;exitDy=0;entryX=1;entryY=0.5;entryDx=0;entryDy=0;" edge="1" parent="lYiHuXV4kpMyug3x7Chv-8" source="wqxDISOV_jV8ctvXTGDp-1" target="wqxDISOV_jV8ctvXTGDp-18">
          <mxGeometry relative="1" as="geometry" />
        </mxCell>
        <mxCell id="wqxDISOV_jV8ctvXTGDp-1" value="Site" style="swimlane;whiteSpace=wrap;html=1;" vertex="1" parent="lYiHuXV4kpMyug3x7Chv-8">
          <mxGeometry x="430" y="150" width="50" height="40" as="geometry" />
        </mxCell>
        <mxCell id="wqxDISOV_jV8ctvXTGDp-6" value="Card" style="swimlane;whiteSpace=wrap;html=1;" vertex="1" parent="lYiHuXV4kpMyug3x7Chv-8">
          <mxGeometry x="550" y="240" width="50" height="40" as="geometry" />
        </mxCell>
        <mxCell id="wqxDISOV_jV8ctvXTGDp-7" value="" style="endArrow=classic;startArrow=classic;html=1;rounded=0;entryX=1;entryY=1;entryDx=0;entryDy=0;exitX=0;exitY=0;exitDx=0;exitDy=0;" edge="1" parent="lYiHuXV4kpMyug3x7Chv-8" source="wqxDISOV_jV8ctvXTGDp-6" target="wqxDISOV_jV8ctvXTGDp-1">
          <mxGeometry width="50" height="50" relative="1" as="geometry">
            <mxPoint x="430" y="310" as="sourcePoint" />
            <mxPoint x="480" y="260" as="targetPoint" />
          </mxGeometry>
        </mxCell>
        <mxCell id="wqxDISOV_jV8ctvXTGDp-8" value="PageList" style="swimlane;whiteSpace=wrap;html=1;" vertex="1" parent="lYiHuXV4kpMyug3x7Chv-8">
          <mxGeometry x="430" y="240" width="70" height="40" as="geometry" />
        </mxCell>
        <mxCell id="wqxDISOV_jV8ctvXTGDp-9" value="" style="endArrow=classic;startArrow=classic;html=1;rounded=0;entryX=0.25;entryY=1;entryDx=0;entryDy=0;exitX=0.5;exitY=0;exitDx=0;exitDy=0;" edge="1" parent="lYiHuXV4kpMyug3x7Chv-8" source="wqxDISOV_jV8ctvXTGDp-8" target="wqxDISOV_jV8ctvXTGDp-1">
          <mxGeometry width="50" height="50" relative="1" as="geometry">
            <mxPoint x="420" y="320" as="sourcePoint" />
            <mxPoint x="470" y="270" as="targetPoint" />
          </mxGeometry>
        </mxCell>
        <mxCell id="wqxDISOV_jV8ctvXTGDp-12" style="edgeStyle=orthogonalEdgeStyle;rounded=0;orthogonalLoop=1;jettySize=auto;html=1;exitX=0.5;exitY=0;exitDx=0;exitDy=0;entryX=0;entryY=1;entryDx=0;entryDy=0;" edge="1" parent="lYiHuXV4kpMyug3x7Chv-8" source="wqxDISOV_jV8ctvXTGDp-11" target="wqxDISOV_jV8ctvXTGDp-8">
          <mxGeometry relative="1" as="geometry">
            <Array as="points">
              <mxPoint x="395" y="280" />
            </Array>
          </mxGeometry>
        </mxCell>
        <mxCell id="wqxDISOV_jV8ctvXTGDp-13" style="edgeStyle=orthogonalEdgeStyle;rounded=0;orthogonalLoop=1;jettySize=auto;html=1;exitX=0.25;exitY=0;exitDx=0;exitDy=0;entryX=0;entryY=0.5;entryDx=0;entryDy=0;" edge="1" parent="lYiHuXV4kpMyug3x7Chv-8" source="wqxDISOV_jV8ctvXTGDp-11" target="wqxDISOV_jV8ctvXTGDp-1">
          <mxGeometry relative="1" as="geometry" />
        </mxCell>
        <mxCell id="wqxDISOV_jV8ctvXTGDp-11" value="ListElement" style="swimlane;whiteSpace=wrap;html=1;startSize=23;" vertex="1" parent="lYiHuXV4kpMyug3x7Chv-8">
          <mxGeometry x="350" y="310" width="90" height="40" as="geometry" />
        </mxCell>
        <mxCell id="wqxDISOV_jV8ctvXTGDp-15" value="MainPage" style="swimlane;whiteSpace=wrap;html=1;" vertex="1" parent="lYiHuXV4kpMyug3x7Chv-8">
          <mxGeometry x="640" y="190" width="110" height="40" as="geometry" />
        </mxCell>
        <mxCell id="wqxDISOV_jV8ctvXTGDp-18" value="SiteCategory" style="swimlane;whiteSpace=wrap;html=1;" vertex="1" parent="lYiHuXV4kpMyug3x7Chv-8">
          <mxGeometry x="330" y="80" width="90" height="40" as="geometry" />
        </mxCell>
        <mxCell id="lYiHuXV4kpMyug3x7Chv-12" style="edgeStyle=none;curved=1;rounded=0;orthogonalLoop=1;jettySize=auto;html=1;exitX=0.5;exitY=0;exitDx=0;exitDy=0;entryX=0.75;entryY=1;entryDx=0;entryDy=0;fontSize=12;startSize=8;endSize=8;fillColor=#ffcc99;strokeColor=#3D0101;strokeWidth=3;" parent="1" source="lYiHuXV4kpMyug3x7Chv-10" target="ZAmYnKzkROyxz_uaIST8-8" edge="1">
          <mxGeometry relative="1" as="geometry" />
        </mxCell>
        <mxCell id="lYiHuXV4kpMyug3x7Chv-13" style="edgeStyle=none;curved=1;rounded=0;orthogonalLoop=1;jettySize=auto;html=1;exitX=0.5;exitY=0;exitDx=0;exitDy=0;entryX=0.75;entryY=1;entryDx=0;entryDy=0;fontSize=12;startSize=8;endSize=8;strokeWidth=3;" parent="1" source="lYiHuXV4kpMyug3x7Chv-9" target="_3OZw0aWYD415ZmmjR2A-6" edge="1">
          <mxGeometry relative="1" as="geometry" />
        </mxCell>
      </root>
    </mxGraphModel>
  </diagram>
</mxfile>
